<?xml version="1.0" encoding="UTF-8"?> <svg xmlns="http://www.w3.org/2000/svg" width="512" height="512" viewBox="0 0 512 512" fill="none"> <path d="M256 0C114.779 0 0 114.779 0 256C0 397.221 114.779 512 256 512C397.221 512 512 397.221 512 256C512 114.779 397.221 0 256 0ZM256 486.16C129.202 486.16 25.8404 382.798 25.8404 256C25.8404 129.202 129.202 25.8404 256 25.8404C382.798 25.8404 486.16 129.202 486.16 256C486.16 382.798 382.798 486.16 256 486.16Z" fill="#12B048"></path> <path d="M268.535 267.458L374.767 267.458C381.566 267.458 387.515 261.509 387.515 254.71C387.515 247.911 381.566 241.962 374.767 241.962L268.535 241.962L268.535 135.73C268.535 128.931 262.586 122.982 255.787 122.982C248.989 122.982 243.04 128.931 243.04 135.73L243.04 241.962L137.233 241.537C130.434 241.537 124.485 247.486 124.485 254.285C124.485 257.685 126.184 261.084 128.309 263.209C130.434 265.333 133.833 267.033 137.233 267.033L243.465 267.033V373.265C243.465 376.664 245.164 380.064 247.289 382.189C249.414 384.313 252.813 386.013 256.212 386.013C263.011 386.013 268.96 380.064 268.96 373.265L268.535 267.458Z" fill="#12B048"></path> </svg> 